<?xml version="1.0" encoding="utf-8"?>
<!DOCTYPE svg PUBLIC "-//W3C//DTD SVG 20010904//EN"
 "http://www.w3.org/TR/2001/REC-SVG-20010904/DTD/svg10.dtd">
<!--
  â•”â•â•â•â•â•â•â•â•â•â•â•â•â•â•â•â•â•â•â•â•â•â•â•â•â•â•â•â•â•â•â•â•â•â•â•â•â•â•â•â•â•â•â•â•â•â•â•â•â•â•â•â•â•â•â•â•â•â•â•â•—
  â•‘  Black Ribbon Memorial Overlay - SVG Asset               â•‘
  â•‘  Powered by Priesdelly                                   â•‘
  â•‘  Â© 2025 - Created with respect and remembrance           â•‘
  â•‘  GitHub: github.com/priesdelly                           â•‘
  â•‘  â”€â”€â”€â”€â”€â”€â”€â”€â”€â”€â”€â”€â”€â”€â”€â”€â”€â”€â”€â”€â”€â”€â”€â”€â”€â”€â”€â”€â”€â”€â”€â”€â”€â”€â”€â”€â”€â”€â”€â”€â”€â”€â”€â”€â”€â”€â”€â”€â”€â”€â”€â”€â”€â”€â”€ â•‘
  â•‘  This SVG is part of the Black Ribbon Memorial project   â•‘
  â•‘  A tool for adding memorial ribbons to images            â•‘
  â•‘  Used with love and respect for those we remember ðŸ•¯ï¸     â•‘
  â•šâ•â•â•â•â•â•â•â•â•â•â•â•â•â•â•â•â•â•â•â•â•â•â•â•â•â•â•â•â•â•â•â•â•â•â•â•â•â•â•â•â•â•â•â•â•â•â•â•â•â•â•â•â•â•â•â•â•â•â•â•
-->
<svg version="1.0" xmlns="http://www.w3.org/2000/svg" width="240.000000pt" height="238.000000pt" viewBox="0 0 240.000000 238.000000" preserveAspectRatio="xMidYMid meet">
<metadata>
  <rdf:RDF xmlns:rdf="http://www.w3.org/1999/02/22-rdf-syntax-ns#"
           xmlns:dc="http://purl.org/dc/elements/1.1/">
    <rdf:Description>
      <dc:creator>Priesdelly</dc:creator>
      <dc:title>Black Ribbon Memorial</dc:title>
      <dc:date>2025-10-25</dc:date>
      <dc:description>Memorial ribbon for tribute images - Powered by Priesdelly</dc:description>
      <dc:rights>Â© 2025 Priesdelly. Created with respect and remembrance.</dc:rights>
      <dc:identifier>blackribbin-memorial-overlay-v1</dc:identifier>
    </rdf:Description>
  </rdf:RDF>
</metadata>
  <g transform="translate(0.000000,238.000000) scale(0.100000,-0.100000)">
    <circle cx="1200" cy="1190" r="1190" fill="#ffffff" style=""/>
    <g fill="#000000" stroke="none">
      <path d="M1056 2036 c-106 -45 -151 -107 -202 -281 -29 -101 -35 -219 -15 -295 6 -25 48 -120 93 -212 l81 -166 -44 -72 c-188 -303 -217 -355 -209 -375 4 -11 34 -75 66 -143 l59 -123 140 215 c77 119 145 216 150 216 6 0 67 -87 138 -193 70 -105 136 -203 146 -216 l18 -24 72 148 71 148 -38 61 c-21 34 -85 131 -141 217 l-101 156 75 154 c113 233 125 307 81 483 -46 178 -89 246 -189 298 -66 34 -176 36 -251 4z m273 -251 c34 -15 61 -34 61 -41 0 -46 -124 -295 -183 -368 l-23 -28 -51 83 c-73 121 -173 304 -173 317 0 14 30 31 100 54 79 26 188 19 269 -17z" style=""/>
    </g>
  </g>
  <ellipse style="stroke: rgb(0, 0, 0); paint-order: fill; fill: rgba(0, 0, 0, 0); stroke-width: 9px;" cx="119.065" cy="118.063" rx="107.543" ry="107.255"/>
</svg>